/* XPM */
static char *ea1f40a1ca6a4f7dc6cd50eedafcd4a0bM2IgV3mIzN2O7FS[] = {
/* columns rows colors chars-per-pixel */
"32 32 6 1 ",
"  c #1C1429",
". c #222034",
"X c #A84111",
"o c #FF4D00",
"O c #748F93",
"+ c #DEF9FC",
/* pixels */
"                                ",
"                                ",
"                                ",
"                                ",
"                                ",
"                                ",
"                                ",
"                                ",
"                                ",
"              ++                ",
"             o+.+               ",
"            oo+++               ",
"              +++               ",
"              +++               ",
"             +++                ",
"             +++                ",
"            ++++    O           ",
"            ++++    OO          ",
"           ++++++   OO          ",
"           +++++++++OOO         ",
"           ++++++++++++++       ",
"           +++++++++++++++      ",
"            +++++++++++++       ",
"            ++++++++++++++      ",
"             ++++++++++         ",
"              +++++OO           ",
"               OO++++           ",
"                X   o           ",
"                X   o           ",
"               XX   o           ",
"              XXX  ooo          ",
"                                "
};
