/* XPM */
static char *_30fc44bbdfc4601bf1b5f01d99fd857SfgniH9JEdMuLLEB[] = {
/* columns rows colors chars-per-pixel */
"32 32 6 1 ",
"  c black",
". c #0C1317",
"X c #211D1D",
"o c #1C1429",
"O c #31314B",
"+ c #6F5756",
/* pixels */
"oooooooooooooooooooooooooooooooo",
"oooooooooooooooooooooooooooooooo",
"oooooooooooooooooooooooooooooooo",
"oooooooooooooooooooooooooooooooo",
"oooooooooooooooooooooooooooooooo",
"o+++++++++++++++++++++++++++++++",
"o+++++++++++++++++++++++++++++++",
"o++                            +",
"o++                     XXXXX  +",
"o++ OOOOOO              XXXXX  +",
"o++ OOOOOO              XXXXX  +",
"o++ OOOOOO                     +",
"o++ OOOOOO           XXXXX     +",
"o++ OOOOOO           XXXXX     +",
"o++ OOOOOO OOOOOO    XXXXX     +",
"o++ OOOOOO OOOOOO              +",
"o++ OOOOOO OOOOOO              +",
"o++ OOOOOO.OOOOOO              +",
"o++ OOOOOO.OOOOOO              +",
"o++ OOOOOO.OOOOOO              +",
"o++ OOOOOO.OOOOOO.OOOOOO       +",
"o++ OOOOOO.OOOOOO.OOOOOO       +",
"o++ OOOOOO.OOOOOO.OOOOOO       +",
"o++ OOOOOO.OOOOOO.OOOOOO       +",
"o++ OOOOOO.OOOOOO.OOOOOO       +",
"o++ OOOOOO.OOOOOO.OOOOOO OOOOO +",
"o++ OOOOOO.OOOOOO.OOOOOO OOOOO +",
"o++ OOOOOO.OOOOOO.OOOOOO.OOOOO +",
"o++ OOOOOO.OOOOOO.OOOOOO.OOOOO +",
"o+++++++++++++++++++++++++++++++",
"o+++++++++++++++++++++++++++++++",
"oooooooooooooooooooooooooooooooo"
};
