/* XPM */
static char *result[] = {
/* columns rows colors chars-per-pixel */
"32 32 9 1 ",
"  c black",
". c #1C1429",
"X c #5A5875",
"o c #A84111",
"O c #FF4D00",
"+ c #42428F",
"@ c #8D768A",
"# c #A5B5D4",
"$ c #DEF9FC",
/* pixels */
"................................",
"...................$$...........",
"..................$$##..........",
".................$$####.........",
"................#$#####.........",
"................ #  ###.........",
"................#$###XX.........",
"................X#XXXXX.........",
".............X#+X#XXXX+.X#......",
".............#X#+$++++#X#X......",
"............####$#####X#X##.....",
"............#X##$#####X#####....",
"............#X##$#####X#####....",
".............XX#$######XX##X#...",
"............XXX##$####o..#X##...",
"............XXXoooooooo...###...",
"...........XXX#ooooooo#...XXX...",
"..........O#XX##########..####..",
".........O$O#.#@####@####.###...",
".........$$O#.#@####@####.X##...",
"........$$OO..@@@##@@@###.###...",
".......$$.....##@@@.@@@@@..##...",
"......$$.......#@@@..###@.......",
".....$$.........#++..###X.......",
"....$$..........+++...XX##......",
"...$$...........+++....###......",
"..$$............+++....###......",
"..$............++++....###......",
".......................###......",
"................................",
"................................",
"................................"
};
